<?xml version="1.0" encoding="UTF-8"?>
<svg xmlns="http://www.w3.org/2000/svg" width="512" height="512" viewBox="0 0 512 512" role="img" aria-labelledby="title">
  <title>aircraft heavy</title>
  <path fill="currentColor" color="#000000" fill-rule="evenodd" d="
    M 256 435.57 L 254.82 435 L 248 413.3 L 181 429.34 L 173.86 430 L 175.75 416 L 177.56 413 L 240.02 376 L 234.69 333 L 230 280.35 L 193 291.86 L 189 303.48 L 186.77 302 L 184 294.74 L 155 304.6 L 151 315.66 L 148.81 315 L 147.23 309 L 146 307.99 L 136 311.9 L 132 322.6 L 130.33 322 L 128.54 316 L 127 315.28 L 63 339.21 L 61.74 338 L 65 317.05 L 117.75 280 L 116.18 261 L 118.24 247 L 125 245.31 L 131 245.58 L 134.32 247 L 136.13 257 L 136.12 267 L 137 267.36 L 167.54 246 L 166.11 226 L 166.83 218 L 169 213.13 L 176 211.97 L 184 213.59 L 187 230.49 L 231 181.99 L 232.44 176 L 233.61 131 L 237.82 103 L 241.76 90 L 245.59 82 L 251 75.85 L 256 74.39 L 260.7 76 L 265.25 81 L 269.38 89 L 273.27 101 L 276.26 116 L 278.13 134 L 278.92 175 L 280.41 182 L 324 230.25 L 325.25 230 L 325.59 219 L 328 213.03 L 335 211.91 L 343 213.82 L 345.17 228 L 343.55 246 L 374 267.2 L 375.27 267 L 375.37 255 L 377.08 247 L 383 245.31 L 390 245.64 L 393 246.86 L 395.03 262 L 393.48 280 L 446.37 317 L 449.42 338 L 449 339.32 L 446 338.36 L 384 315.18 L 382.6 316 L 381 321.79 L 379 322.56 L 375 311.67 L 365 307.89 L 362.36 315 L 361 316.04 L 359.54 315 L 356 304.53 L 327 294.74 L 324 302.78 L 322 303.38 L 318 291.75 L 281 280.33 L 276.3 334 L 271 375.48 L 333.64 413 L 335.33 416 L 337.24 430 L 330 429.33 L 263 413.28 L 256 435.57 Z
  "/>
</svg>
