<?xml version="1.0" encoding="UTF-8"?>
<svg xmlns="http://www.w3.org/2000/svg" width="512" height="512" viewBox="0 0 512 512" role="img" aria-labelledby="title">
  <title>aircraft jet</title>
  <path fill="currentColor" color="#000000" fill-rule="evenodd" d="
    M 256 449.49 L 254 449.34 L 251.87 447 L 246.35 423 L 245 421.42 L 193 442.4 L 191.4 441 L 192 421.4 L 238.31 382 L 232 283.61 L 215 289.85 L 175 307.72 L 104 341.69 L 103.19 326 L 103.37 319 L 105 316.77 L 178.13 252 L 178.58 234 L 181 229.5 L 186 226.9 L 191 226.77 L 196 228.86 L 199 233.23 L 200 233.19 L 232.09 202 L 232.55 122 L 234.74 102 L 238.72 85 L 243.95 72 L 249 64.58 L 255 61.74 L 260.77 64 L 266.48 72 L 272.35 87 L 276.26 105 L 278.28 130 L 278.47 202 L 311 233.47 L 315 228.53 L 319 226.9 L 324 226.75 L 329 228.98 L 331.83 234 L 332.4 252 L 398 309.77 L 406.74 318 L 407.43 321 L 407.44 340 L 406 341.65 L 329 304.74 L 279 283.25 L 271.78 381 L 318.33 421 L 319.13 441 L 317 442.23 L 265 421.47 L 259.34 445 L 256 449.49 Z
  "/>
</svg>
