<?xml version="1.0" encoding="UTF-8"?>
<svg xmlns="http://www.w3.org/2000/svg" width="512" height="512" viewBox="0 0 512 512" role="img" aria-labelledby="title">
  <title>aircraft helicopter</title>
  <path fill="currentColor" color="#000000" fill-rule="evenodd" d="
    M 263 206.58 L 256 205.07 L 249 206.37 L 219.01 178 L 218 158.39 L 209 158.67 L 208 167.49 L 202.93 163 L 203.3 137 L 206 135.58 L 208.13 137 L 208.47 152 L 218 152.68 L 218.73 120 L 220.62 109 L 223.59 100 L 228.79 90 L 236 81.57 L 243 76.55 L 253.13 73 L 253.47 63 L 256 61.62 L 258.73 63 L 259.16 73 L 268 75.84 L 275 80.5 L 281.29 87 L 288.28 99 L 293.23 118 L 294 152.65 L 303.6 152 L 303.79 138 L 305 136.03 L 307 135.56 L 309.37 138 L 309.29 163 L 304 167.44 L 303.54 159 L 294 158.45 L 293.34 178 L 263 206.58 Z
    M 259 448.02 L 253 448.33 L 251.23 447 L 248 409.51 L 208 409.48 L 205.83 408 L 208.42 393 L 210 391.5 L 247.41 391 L 244.55 296 L 242.35 289 L 228.59 267 L 224.34 255 L 250 231.01 L 257 232.58 L 263 231.08 L 287.97 255 L 282.22 270 L 270.51 288 L 267.79 295 L 263.18 390 L 264 391.48 L 288 391.52 L 289.31 393 L 291.62 406 L 287 409.48 L 262.38 410 L 259 448.02 Z
    M 379 333.33 L 376 332.66 L 349 308.25 L 280.06 245 L 264.14 230 L 264.41 229 L 268 225.36 L 269 225.81 L 324 268.74 L 386 320.38 L 387.4 322 L 387 324.92 L 379 333.33 Z
    M 244 212.59 L 208 185.14 L 129 119.38 L 123.97 115 L 124.25 112 L 132 104.48 L 136 105.9 L 198 160.83 L 248 207.6 L 244 212.59 Z
    M 269 212.18 L 268 212.59 L 263.79 208 L 314 160.77 L 376 105.37 L 380 104.93 L 387 112.22 L 387.56 114 L 386 116.19 L 311 179.38 L 269 212.18 Z
    M 134 333.3 L 131 332.84 L 123.87 325 L 124.3 321 L 198 260.75 L 243 225.91 L 244.83 226 L 248 230.26 L 134 333.3 Z
    M 205 253.38 L 202.94 251 L 202.92 184 L 204 183.68 L 208.41 188 L 209 235.35 L 220.42 235 L 219.03 197 L 220 196.51 L 223 198.72 L 243.19 215 L 243.1 224 L 220.65 241 L 209 241.57 L 208.4 250 L 205 253.38 Z
    M 308 253.39 L 303.74 250 L 303 241.44 L 292 241.36 L 269.16 224 L 269.17 215 L 272 211.78 L 293 196.61 L 291.81 235 L 303.53 235 L 303.8 188 L 309 183.4 L 309.33 251 L 308 253.39 Z
    M 225.28 134 L 236 128.7 L 252.37 126 L 252.73 100 L 239 100.77 L 231 103.61 L 226.53 107 L 223.96 116 L 224.06 133 L 225.28 134 Z
    M 288.13 134 L 288.17 114 L 285.59 107 L 276 101.57 L 260 99.52 L 259.73 126 L 276 128.66 L 288.13 134 Z
    M 260 230.36 L 252 230.3 L 247.37 227 L 244.68 223 L 244.32 217 L 245.67 213 L 249.23 209 L 254 206.81 L 258 206.75 L 262.82 209 L 266.46 213 L 268.28 218 L 266.41 225 L 260 230.36 Z
    M 284 449.41 L 278.56 447 L 289.35 420 L 286.7 414 L 288 411.1 L 293.21 407 L 299.58 381 L 304 380.9 L 305.84 383 L 295.56 409 L 298 414 L 297.46 417 L 296 419.02 L 291.7 421 L 285.37 448 L 284 449.41 Z
  "/>
</svg>
