<?xml version="1.0" encoding="UTF-8"?>
<svg xmlns="http://www.w3.org/2000/svg" width="512" height="512" viewBox="0 0 512 512" role="img" aria-labelledby="title">
  <title>aircraft special</title>
  <path fill="currentColor" color="#000000" fill-rule="evenodd" d="
    M 319 449.23 L 317 449.43 L 285.82 422 L 279 394.97 L 276 411.9 L 268.88 420 L 267 420.22 L 259.58 412 L 259.08 406 L 257.42 404 L 256.6 400 L 257.1 393 L 256 391.75 L 253.84 393 L 254.39 399 L 253.54 404 L 251.99 406 L 251.38 412 L 243 420.78 L 234.94 412 L 232 394.93 L 225.29 422 L 194 449.38 L 163 440.1 L 162 439 L 162.47 417 L 192 388.74 L 209 400.7 L 209.84 400 L 192.2 384 L 192.01 371 L 214.57 346 L 190.26 369 L 189 376.86 L 133 356.5 L 120.87 344 L 121.56 324 L 208 240.21 L 207 258.27 L 211.63 241 L 208.37 235 L 213.47 186 L 235.64 166 L 239.71 118 L 242.63 97 L 246.78 80 L 255 62.12 L 256 62.12 L 263.07 77 L 268.35 97 L 271.32 118 L 275.4 166 L 297.58 186 L 302.6 235 L 299.34 241 L 304 258.28 L 303 240.27 L 390.08 325 L 390.15 344 L 378.89 356 L 322 377.02 L 320.77 369 L 297 346.46 L 318.9 371 L 318.77 384 L 302.22 399 L 303 399.97 L 319 388.68 L 348.94 418 L 348.97 439 L 348.07 440 L 319 449.23 Z
    M 259.36 186 L 262.25 185 L 263.04 180 L 264.26 148 L 261.3 132 L 256.17 125 L 255 124.81 L 249.65 132 L 247.64 141 L 246.47 151 L 246.75 167 L 248.78 185 L 254 186.47 L 259.36 186 Z
    M 299.09 403 L 301.63 401 L 301 400.1 L 297.73 403 L 299.09 403 Z
    M 213.24 403 L 210 400.18 L 209.33 401 L 213.24 403 Z
  "/>
</svg>
