<?xml version="1.0" encoding="UTF-8"?>
<svg xmlns="http://www.w3.org/2000/svg" width="512" height="512" viewBox="0 0 512 512" role="img" aria-labelledby="title">
  <title>aircraft glider</title>
  <path fill="currentColor" color="#000000" fill-rule="evenodd" d="
    M 256 353.13 L 253 340.51 L 227 338.29 L 225.4 337 L 226 332.69 L 252 328.41 L 253.41 327 L 250.86 249 L 250.23 244 L 248 241.51 L 82 228.22 L 65 226.29 L 62 225.2 L 62.1 224 L 66 222.53 L 84 221.69 L 248 218.55 L 249.61 178 L 252.62 162 L 253.65 159 L 256 156.95 L 259.23 164 L 261.43 176 L 262.65 192 L 262.57 217 L 264 218.83 L 430 221.76 L 446 222.64 L 449.26 224 L 449 225.43 L 446 226.32 L 429 228.2 L 263 241.63 L 261.55 243 L 260.46 249 L 257.94 327 L 259 328.37 L 285 332.56 L 285.92 337 L 284 338.27 L 258 340.59 L 256 353.13 Z
    M 258.61 202 L 260.69 200 L 260.14 181 L 258.41 175 L 255 173.54 L 252.84 175 L 251.59 178 L 250.55 200 L 253 202.13 L 258.61 202 Z
  "/>
</svg>
