<svg xmlns="http://www.w3.org/2000/svg" viewBox="0 0 64 64"><g fill="currentColor" stroke="currentColor" stroke-linejoin="round" stroke-linecap="round"><path d="M32 6.5c3.8 0 6.4 5.7 6.4 13.7v6.3l18.7 11.1c1.1.7 1.8 1.9 1.8 3.2v3.7L38 38.4l-1.7 10.3 8.5 5.9v3.1L32 54.5l-12.8 3.2v-3.1l8.5-5.9L26 38.4 5.1 44.5v-3.7c0-1.3.7-2.5 1.8-3.2l18.7-11.1v-6.3c0-8 2.6-13.7 6.4-13.7z"/><rect x="18" y="35.1" width="4.1" height="3.8" rx="1.1"/><rect x="25" y="34.2" width="4.1" height="3.8" rx="1.1"/><rect x="34.9" y="34.2" width="4.1" height="3.8" rx="1.1"/><rect x="41.9" y="35.1" width="4.1" height="3.8" rx="1.1"/></g></svg>