<?xml version="1.0" encoding="UTF-8"?>
<svg xmlns="http://www.w3.org/2000/svg" width="512" height="512" viewBox="0 0 512 512" role="img" aria-labelledby="title">
  <title>aircraft prop</title>
  <path fill="currentColor" color="#000000" fill-rule="evenodd" d="
    M 255 419.4 L 253.09 417 L 251 384.83 L 246.6 398 L 245 398.89 L 185 393.6 L 181.61 391 L 181.57 370 L 185.44 366 L 245.91 358 L 230.56 246 L 64 226.1 L 61.69 224 L 61.33 222 L 61.34 188 L 62.63 183 L 68 179.31 L 172 174.61 L 174.34 173 L 174.49 169 L 176 168.21 L 179 174.56 L 229 174.59 L 232.69 120 L 233.83 116 L 237 111.53 L 249 107.11 L 249.06 101 L 248 99.81 L 224 101.14 L 207 99.47 L 205.56 98 L 224 95.72 L 249 96.92 L 252 92.57 L 256 90.87 L 259.51 93 L 262 96.94 L 287 95.72 L 305.34 98 L 304 99.47 L 287 101.13 L 263 99.86 L 261.94 101 L 262 107.11 L 273 110.9 L 277.39 117 L 279.36 131 L 281.15 173 L 282 174.59 L 332 174.47 L 333.43 173 L 333.6 169 L 335 168.21 L 336.3 169 L 336.43 173 L 338 174.6 L 444 179.61 L 447.39 182 L 449.39 186 L 449.59 220 L 449.14 224 L 446 226.3 L 280.39 246 L 264.58 358 L 319 365.75 L 323.02 370 L 323.21 390 L 322.45 392 L 320 393.6 L 264 398.97 L 262.46 398 L 259 385.72 L 257 416.72 L 255 419.4 Z
    M 236.73 206 L 253 202.79 L 253 174.8 L 249 174.72 L 242 176.75 L 235.68 183 L 234.69 186 L 234.47 205 L 235 206.45 L 236.73 206 Z
    M 276.31 206 L 276.3 187 L 275.13 183 L 269 176.83 L 258 174.67 L 258 203 L 276.31 206 Z
  "/>
</svg>
